<svg width="32" height="32" viewBox="0 0 32 32" fill="none" xmlns="http://www.w3.org/2000/svg">
<rect x="0.5" y="0.5" width="31" height="31" rx="6.5" fill="white" stroke="#F8F8F8"/>
<path d="M21.4976 10.7952C20.8056 10.2676 20.0419 10 19.2278 10C18.2007 10 17.0911 10.4384 16 11.2721C14.9088 10.4384 13.7993 10 12.7721 10C11.958 10 11.1944 10.2676 10.5023 10.7952C9.48976 11.5672 8.98452 12.5414 9.00036 13.6907C9.05484 17.6264 15.4459 22.2703 15.7179 22.466L16 22.6691L16.2821 22.466C16.5542 22.2703 22.9452 17.6264 22.9996 13.6907C23.0154 12.5414 22.5102 11.5672 21.4976 10.7952ZM18.9061 18.9305C17.7229 20.1205 16.5289 21.0676 16 21.4711C15.471 21.0676 14.2771 20.1206 13.0939 18.9305C11.0668 16.8917 9.98528 15.075 9.96622 13.6768C9.95476 12.8389 10.3217 12.1475 11.088 11.5633C11.6079 11.1668 12.1745 10.9659 12.7721 10.9659C13.9031 10.9659 14.9833 11.6701 15.6903 12.2608L16 12.5196L16.3097 12.2608C17.0166 11.6701 18.0969 10.9659 19.2278 10.9659C19.8254 10.9659 20.392 11.1668 20.9119 11.5633C21.6782 12.1475 22.0452 12.8389 22.0337 13.6768C22.0147 15.075 20.9331 16.8917 18.9061 18.9305Z" fill="#D3D3D3"/>
</svg>
